HIERARCHY
ROOT Hips
{
	OFFSET 0.000000 83.214638 0.000000
	CHANNELS 6 Xposition Yposition Zposition Xrotation Yrotation Zrotation
	JOINT Pelvis
	{
		OFFSET 0.000000 0.000000 0.000000
		CHANNELS 3 Xrotation Yrotation Zrotation
		JOINT LeftUpLeg
		{
			OFFSET 8.479700 -4.795502 -0.379100
			CHANNELS 3 Xrotation Yrotation Zrotation
			JOINT LeftLeg
			{
				OFFSET 0.024144 -32.555107 0.112900
				CHANNELS 3 Xrotation Yrotation Zrotation
				JOINT LeftFoot
				{
					OFFSET -0.024144 -32.638630 -3.012600
					CHANNELS 3 Xrotation Yrotation Zrotation
					JOINT LeftToeBase
					{
						OFFSET 0.970200 -13.225400 11.864200
						CHANNELS 3 Xrotation Yrotation Zrotation
						End Site
						{
							OFFSET 0.000000 12.319262 0.000000
						}
					}
					JOINT LFootTongue
					{
						OFFSET 1.142400 -1.059800 6.665200
						CHANNELS 3 Xrotation Yrotation Zrotation
						End Site
						{
							OFFSET 0.000000 12.319262 0.000000
						}
					}
				}
				JOINT LeftPantLeg
				{
					OFFSET 0.918482 -16.533964 -2.284700
					CHANNELS 3 Xrotation Yrotation Zrotation
					End Site
					{
						OFFSET 0.350399 24.744368 0.000000
					}
				}
			}
		}
		JOINT RightUpLeg
		{
			OFFSET -8.479700 -4.795502 -0.379100
			CHANNELS 3 Xrotation Yrotation Zrotation
			JOINT RightLeg
			{
				OFFSET -0.023144 -32.555092 0.112900
				CHANNELS 3 Xrotation Yrotation Zrotation
				JOINT RightFoot
				{
					OFFSET 0.023144 -32.638641 -3.012700
					CHANNELS 3 Xrotation Yrotation Zrotation
					JOINT RightToeBase
					{
						OFFSET -0.970200 -13.225400 11.864200
						CHANNELS 3 Xrotation Yrotation Zrotation
						End Site
						{
							OFFSET 0.000000 12.319244 0.000000
						}
					}
					JOINT RFootTongue
					{
						OFFSET -1.142200 -1.059800 6.665200
						CHANNELS 3 Xrotation Yrotation Zrotation
						End Site
						{
							OFFSET 0.000000 12.319243 0.000000
						}
					}
				}
				JOINT RightPantLeg
				{
					OFFSET -0.919482 -16.533978 -2.284800
					CHANNELS 3 Xrotation Yrotation Zrotation
					End Site
					{
						OFFSET -0.350400 24.744419 0.000000
					}
				}
			}
		}
	}
	JOINT Spine
	{
		OFFSET 0.000000 7.722000 1.166200
		CHANNELS 3 Xrotation Yrotation Zrotation
		JOINT Spine1
		{
			OFFSET 0.000000 12.024101 0.248800
			CHANNELS 3 Xrotation Yrotation Zrotation
			JOINT Spine2
			{
				OFFSET 0.000000 11.502998 -0.491200
				CHANNELS 3 Xrotation Yrotation Zrotation
				JOINT Neck
				{
					OFFSET 0.000000 18.430702 -3.123100
					CHANNELS 3 Xrotation Yrotation Zrotation
					JOINT Head
					{
						OFFSET 0.000000 9.051102 1.034000
						CHANNELS 3 Xrotation Yrotation Zrotation
						JOINT HairB
						{
							OFFSET 0.208400 24.786102 24.822300
							CHANNELS 3 Xrotation Yrotation Zrotation
							End Site
							{
								OFFSET 0.000000 32.263779 0.000000
							}
						}
						JOINT HairA
						{
							OFFSET -7.081100 24.428299 23.196600
							CHANNELS 3 Xrotation Yrotation Zrotation
							End Site
							{
								OFFSET 0.000000 32.263779 0.000000
							}
						}
						JOINT Hat
						{
							OFFSET 16.728800 15.048294 -15.439601
							CHANNELS 3 Xrotation Yrotation Zrotation
							End Site
							{
								OFFSET 0.000000 32.263779 0.000000
							}
						}
					}
				}
				JOINT LeftShoulder
				{
					OFFSET 6.197800 13.665199 -4.064700
					CHANNELS 3 Xrotation Yrotation Zrotation
					JOINT LeftArm
					{
						OFFSET 7.778100 -0.187103 -1.709300
						CHANNELS 3 Xrotation Yrotation Zrotation
						JOINT LeftForeArm
						{
							OFFSET 22.049376 0.000000 0.000000
							CHANNELS 3 Xrotation Yrotation Zrotation
							JOINT LeftHand
							{
								OFFSET 23.009392 0.000000 0.000000
								CHANNELS 3 Xrotation Yrotation Zrotation
								JOINT LeftHandThumb1
								{
									OFFSET 3.507191 -2.063065 3.133727
									CHANNELS 3 Xrotation Yrotation Zrotation
									JOINT LeftHandThumb2
									{
										OFFSET 3.101337 -1.790558 1.790558
										CHANNELS 3 Xrotation Yrotation Zrotation
										JOINT LeftHandThumb3
										{
											OFFSET 3.058640 -1.765907 1.765906
											CHANNELS 3 Xrotation Yrotation Zrotation
											End Site
											{
												OFFSET -0.415260 3.926476 -0.049563
											}
										}
									}
								}
								JOINT LeftHandIndex1
								{
									OFFSET 11.334419 -0.901459 3.706815
									CHANNELS 3 Xrotation Yrotation Zrotation
									JOINT LeftHandIndex2
									{
										OFFSET 3.283112 0.000000 0.000000
										CHANNELS 3 Xrotation Yrotation Zrotation
										JOINT LeftHandIndex3
										{
											OFFSET 3.323853 0.000000 0.000000
											CHANNELS 3 Xrotation Yrotation Zrotation
											End Site
											{
												OFFSET -1.135597 3.097809 0.402452
											}
										}
									}
								}
								JOINT LeftHandMiddle1
								{
									OFFSET 11.335861 0.000000 0.000000
									CHANNELS 3 Xrotation Yrotation Zrotation
									JOINT LeftHandMiddle2
									{
										OFFSET 3.410492 0.000000 0.000000
										CHANNELS 3 Xrotation Yrotation Zrotation
										JOINT LeftHandMiddle3
										{
											OFFSET 3.312172 0.000000 0.000000
											CHANNELS 3 Xrotation Yrotation Zrotation
											End Site
											{
												OFFSET -1.150200 3.080154 0.400270
											}
										}
									}
								}
								JOINT LeftHandRing1
								{
									OFFSET 11.514786 -0.013176 -3.003090
									CHANNELS 3 Xrotation Yrotation Zrotation
									JOINT LeftHandRing2
									{
										OFFSET 3.053307 0.000000 0.000000
										CHANNELS 3 Xrotation Yrotation Zrotation
										JOINT LeftHandRing3
										{
											OFFSET 3.295807 0.000000 0.000000
											CHANNELS 3 Xrotation Yrotation Zrotation
											End Site
											{
												OFFSET -1.281006 3.013344 0.375733
											}
										}
									}
								}
								JOINT LeftHandPinky1
								{
									OFFSET 10.518692 -0.960396 -5.730441
									CHANNELS 3 Xrotation Yrotation Zrotation
									JOINT LeftHandPinky2
									{
										OFFSET 2.861649 0.000000 0.000000
										CHANNELS 3 Xrotation Yrotation Zrotation
										JOINT LeftHandPinky3
										{
											OFFSET 2.863380 0.000000 0.000000
											CHANNELS 3 Xrotation Yrotation Zrotation
											End Site
											{
												OFFSET -0.843597 2.711159 0.369971
											}
										}
									}
								}
							}
							JOINT LSleeve
							{
								OFFSET 6.676277 -0.344902 -1.011730
								CHANNELS 3 Xrotation Yrotation Zrotation
								End Site
								{
									OFFSET 0.000000 14.885353 0.000000
								}
							}
						}
					}
				}
				JOINT RightShoulder
				{
					OFFSET -6.197800 13.665199 -4.064700
					CHANNELS 3 Xrotation Yrotation Zrotation
					JOINT RightArm
					{
						OFFSET -7.778100 -0.187103 -1.709300
						CHANNELS 3 Xrotation Yrotation Zrotation
						JOINT RightForeArm
						{
							OFFSET -22.049376 0.000000 0.000000
							CHANNELS 3 Xrotation Yrotation Zrotation
							JOINT RightHand
							{
								OFFSET -23.009392 0.000000 0.000000
								CHANNELS 3 Xrotation Yrotation Zrotation
								JOINT RightHandThumb1
								{
									OFFSET -3.507191 -2.063065 3.133727
									CHANNELS 3 Xrotation Yrotation Zrotation
									JOINT RightHandThumb2
									{
										OFFSET -3.101337 -1.790558 1.790558
										CHANNELS 3 Xrotation Yrotation Zrotation
										JOINT RightHandThumb3
										{
											OFFSET -3.058640 -1.765907 1.765906
											CHANNELS 3 Xrotation Yrotation Zrotation
											End Site
											{
												OFFSET 0.415260 3.926476 -0.049563
											}
										}
									}
								}
								JOINT RightHandIndex1
								{
									OFFSET -11.334419 -0.901459 3.706815
									CHANNELS 3 Xrotation Yrotation Zrotation
									JOINT RightHandIndex2
									{
										OFFSET -3.283112 0.000000 0.000000
										CHANNELS 3 Xrotation Yrotation Zrotation
										JOINT RightHandIndex3
										{
											OFFSET -3.323853 0.000000 0.000000
											CHANNELS 3 Xrotation Yrotation Zrotation
											End Site
											{
												OFFSET 1.135597 3.097809 0.402452
											}
										}
									}
								}
								JOINT RightHandMiddle1
								{
									OFFSET -11.335861 0.000000 0.000000
									CHANNELS 3 Xrotation Yrotation Zrotation
									JOINT RightHandMiddle2
									{
										OFFSET -3.410492 0.000000 0.000000
										CHANNELS 3 Xrotation Yrotation Zrotation
										JOINT RightHandMiddle3
										{
											OFFSET -3.312172 0.000000 0.000000
											CHANNELS 3 Xrotation Yrotation Zrotation
											End Site
											{
												OFFSET 1.150200 3.080154 0.400270
											}
										}
									}
								}
								JOINT RightHandRing1
								{
									OFFSET -11.514786 -0.013176 -3.003090
									CHANNELS 3 Xrotation Yrotation Zrotation
									JOINT RightHandRing2
									{
										OFFSET -3.053307 0.000000 0.000000
										CHANNELS 3 Xrotation Yrotation Zrotation
										JOINT RightHandRing3
										{
											OFFSET -3.295807 0.000000 0.000000
											CHANNELS 3 Xrotation Yrotation Zrotation
											End Site
											{
												OFFSET 1.281006 3.013344 0.375733
											}
										}
									}
								}
								JOINT RightHandPinky1
								{
									OFFSET -10.518692 -0.960396 -5.730441
									CHANNELS 3 Xrotation Yrotation Zrotation
									JOINT RightHandPinky2
									{
										OFFSET -2.861649 0.000000 0.000000
										CHANNELS 3 Xrotation Yrotation Zrotation
										JOINT RightHandPinky3
										{
											OFFSET -2.863380 0.000000 0.000000
											CHANNELS 3 Xrotation Yrotation Zrotation
											End Site
											{
												OFFSET 0.843597 2.711159 0.369971
											}
										}
									}
								}
							}
							JOINT RSleeve
							{
								OFFSET -6.676277 -0.344902 -1.011730
								CHANNELS 3 Xrotation Yrotation Zrotation
								End Site
								{
									OFFSET 0.000000 14.885353 0.000000
								}
							}
						}
					}
				}
				JOINT Backpack
				{
					OFFSET 0.000000 -2.471497 36.677502
					CHANNELS 3 Xrotation Yrotation Zrotation
					End Site
					{
						OFFSET 0.000000 20.427315 0.000000
					}
				}
				JOINT Hood
				{
					OFFSET 0.000000 18.754097 -10.431000
					CHANNELS 3 Xrotation Yrotation Zrotation
					JOINT Hood1
					{
						OFFSET 0.000000 -5.011002 -7.685901
						CHANNELS 3 Xrotation Yrotation Zrotation
						End Site
						{
							OFFSET 0.000000 9.175140 0.000000
						}
					}
				}
				JOINT LHoodieString
				{
					OFFSET 5.250500 16.397697 3.089900
					CHANNELS 3 Xrotation Yrotation Zrotation
					JOINT LHoodieString1
					{
						OFFSET 0.257700 -6.364304 3.694600
						CHANNELS 3 Xrotation Yrotation Zrotation
						JOINT LHoodieString2
						{
							OFFSET 0.000000 -9.643799 2.679100
							CHANNELS 3 Xrotation Yrotation Zrotation
							End Site
							{
								OFFSET 0.000000 10.009018 0.000000
							}
						}
					}
				}
				JOINT RHoodieString
				{
					OFFSET -5.250500 16.397697 3.089900
					CHANNELS 3 Xrotation Yrotation Zrotation
					JOINT RHoodieString1
					{
						OFFSET -0.257700 -6.364304 3.694600
						CHANNELS 3 Xrotation Yrotation Zrotation
						JOINT RHoodieString2
						{
							OFFSET 0.000000 -9.643799 2.679100
							CHANNELS 3 Xrotation Yrotation Zrotation
							End Site
							{
								OFFSET 0.000000 10.009018 0.000000
							}
						}
					}
				}
			}
			JOINT LBackpack_Strap
			{
				OFFSET 15.223200 -7.719803 -6.610900
				CHANNELS 3 Xrotation Yrotation Zrotation
				End Site
				{
					OFFSET 0.000000 16.040596 0.000000
				}
			}
			JOINT RBackpack_Strap
			{
				OFFSET -15.223000 -7.719803 -6.610900
				CHANNELS 3 Xrotation Yrotation Zrotation
				End Site
				{
					OFFSET 0.000000 16.040596 0.000000
				}
			}
		}
	}
	JOINT BoyFacialAnim_Joint
	{
		OFFSET 1.000000 -82.208099 -1.550900
		CHANNELS 3 Xrotation Yrotation Zrotation
		End Site
		{
			OFFSET 0.000000 30.012791 0.000000
		}
	}
}
MOTION
Frames: 4
Frame Time: 0.033333
-0.608768 74.665314 -0.036318 -72.803847 -98.383185 -75.050563 0.000000 -0.000000 -0.000000 -41.817734 7.192959 27.929825 41.076665 -8.309839 1.380254 -7.228597 1.499433 -15.623487 -0.000000 0.000001 -0.000000 -0.000000 0.000001 -0.000000 0.000001 0.000001 0.000001 -43.431875 -4.318018 -11.243604 50.401964 -6.527364 0.020838 -12.452726 -1.616991 10.168811 -0.000000 -0.000000 0.000000 -0.000000 -0.000000 0.000000 0.000001 -0.000002 0.000000 5.092905 -2.954875 -1.021482 4.847013 -2.724703 -1.011896 4.872817 -2.670286 -1.025826 -6.470356 11.543118 1.332230 1.868927 69.226453 6.189730 0.000001 -0.000002 0.000001 0.000001 -0.000002 0.000001 0.000001 -0.000002 0.000001 2.334456 -16.473655 5.405045 -58.657589 -59.148352 -60.618967 -0.006942 -91.815651 -0.006925 -1.362821 2.416324 38.308376 2.333968 -4.852039 -3.963486 13.533804 36.265890 -6.789666 0.000000 -0.000000 0.000000 2.878042 7.353416 -58.659639 6.385714 5.826681 -95.251858 0.000001 -0.000005 -0.000001 2.878025 7.353408 -58.659652 6.420575 5.823386 -95.595246 0.000002 -0.000003 -0.000000 3.051708 7.454253 -60.629718 5.249917 5.820215 -84.092804 0.000000 0.000003 -0.000005 2.878033 7.353381 -58.659652 3.100875 5.166453 -61.922229 -0.000003 -0.000001 0.000001 -0.000002 0.000001 0.000000 2.128879 10.933922 -13.435722 -35.469193 -9.785006 14.948764 65.603503 147.292223 -40.615129 -3.487217 38.281554 -6.676092 2.454510 6.926590 5.617160 7.810741 -26.809466 -3.040600 0.000001 -0.000003 0.000001 2.770870 -6.512108 65.405379 4.589355 -4.656689 89.164732 -0.000001 0.000001 0.000000 2.634484 -6.539971 74.809252 5.688696 -4.541753 102.810268 -0.000002 0.000002 -0.000005 3.122533 -6.655060 70.080910 5.298712 -4.612857 97.926300 0.000001 0.000001 -0.000001 4.911948 -9.704393 53.806212 4.184482 -4.633201 84.168025 -0.000001 0.000005 0.000001 -0.000003 -0.000001 -0.000000 -0.000001 0.000000 -0.000000 -0.000001 0.000000 -0.000000 -0.000001 0.000000 -0.000000 -0.000001 0.000000 -0.000000 -0.000001 0.000000 0.000000 0.000001 0.000000 -0.000000 -0.000001 0.000000 -0.000000 -0.000001 0.000000 0.000000 0.000001 0.000000 -0.000000 0.000001 0.000000 0.000000 0.000001 0.000000 0.000000 0.000000 -0.000000 -0.000000 
-0.555737 74.563965 -1.490622 -74.594866 -98.494162 -76.535555 0.000000 -0.000000 -0.000000 -41.204223 7.177647 28.337850 39.234078 -8.188807 1.500454 -6.187312 1.467006 -16.709141 -0.000000 -0.000001 -0.000000 -0.000000 -0.000001 -0.000000 0.000001 -0.000001 -0.000002 -44.112258 -4.117500 -9.929596 51.765905 -7.691905 -0.244044 -13.446939 -1.691909 9.498417 0.000000 -0.000003 0.000000 0.000000 -0.000003 0.000000 -0.000002 -0.000001 -0.000000 5.163567 -2.885827 -1.098406 4.921864 -2.655308 -1.082376 4.948073 -2.592998 -1.097468 -4.866384 11.512911 0.934003 1.128830 68.066879 5.507577 -0.000001 0.000001 0.000002 -0.000001 0.000001 0.000002 -0.000001 0.000001 0.000002 2.277348 -16.824856 4.443243 -56.402975 -59.822799 -59.756601 52.615051 -92.140468 53.538025 -1.270504 0.747346 40.836936 2.333968 -4.852040 -3.963488 13.533801 36.265890 -6.789662 -0.000001 0.000002 -0.000000 2.878041 7.353416 -58.659645 6.385715 5.826681 -95.251865 -0.000001 0.000002 -0.000003 2.878028 7.353406 -58.659652 6.420572 5.823385 -95.595246 -0.000000 0.000001 -0.000001 3.051708 7.454253 -60.629718 5.249916 5.820213 -84.092804 -0.000001 -0.000001 -0.000002 2.878034 7.353379 -58.659659 3.100868 5.166446 -61.922229 0.000003 -0.000000 0.000001 -0.000001 0.000001 -0.000001 2.120421 10.977475 -13.040631 -36.012032 -7.432245 13.709473 66.526459 147.727020 -42.280394 -4.489554 34.093842 -4.346069 2.454514 6.926598 5.617164 7.810740 -26.809493 -3.040601 -0.000000 0.000000 0.000000 2.770851 -6.512107 65.405400 4.589374 -4.656693 89.164698 -0.000001 0.000002 0.000002 2.634503 -6.539978 74.809238 5.688702 -4.541720 102.810289 0.000001 0.000003 0.000004 3.122554 -6.655064 70.080924 5.298684 -4.612861 97.926314 -0.000002 -0.000001 -0.000003 4.911939 -9.704379 53.806219 4.184469 -4.633202 84.168018 0.000000 -0.000001 -0.000002 0.000002 0.000001 -0.000000 0.000002 0.000000 -0.000000 0.000002 0.000000 -0.000000 0.000002 0.000000 -0.000000 0.000002 0.000000 -0.000000 0.000002 0.000000 -0.000000 0.000000 0.000000 -0.000001 0.000002 0.000000 -0.000000 0.000002 0.000000 -0.000000 0.000000 0.000000 -0.000001 -0.000001 0.000000 0.000000 -0.000001 0.000000 0.000000 0.000000 -0.000000 -0.000000 
-0.495261 74.496010 -3.142387 -75.714894 -98.643477 -77.397545 -0.000000 0.000000 0.000000 -40.217202 7.026749 28.755182 36.896197 -7.926125 1.771295 -4.920168 1.349116 -18.314358 -0.000000 0.000001 -0.000000 -0.000000 0.000001 -0.000000 -0.000001 -0.000000 -0.000002 -44.742927 -4.279860 -8.603097 52.933949 -8.518165 -0.257081 -14.434725 -1.691350 8.362766 -0.000000 0.000002 0.000000 -0.000000 0.000002 0.000000 0.000001 -0.000000 -0.000001 5.269235 -2.799067 -1.100022 5.029130 -2.592810 -1.166397 5.056259 -2.519602 -1.183400 -3.143836 11.492064 0.490911 0.022941 66.865605 5.035622 0.000001 -0.000001 0.000001 0.000001 -0.000001 0.000001 0.000001 -0.000001 0.000001 2.203580 -17.260347 3.330935 -53.934100 -60.545843 -58.770465 76.479609 -92.748839 78.243997 -1.168164 -0.739390 42.849318 2.333968 -4.852041 -3.963485 13.533806 36.265890 -6.789664 0.000001 0.000005 -0.000002 2.878044 7.353418 -58.659645 6.385712 5.826680 -95.251865 0.000000 -0.000002 -0.000004 2.878029 7.353406 -58.659652 6.420578 5.823383 -95.595246 0.000001 -0.000001 -0.000000 3.051704 7.454258 -60.629711 5.249916 5.820213 -84.092804 -0.000000 0.000002 -0.000002 2.878032 7.353382 -58.659652 3.100877 5.166452 -61.922222 -0.000002 -0.000002 0.000001 -0.000003 0.000001 0.000001 2.114846 11.059760 -12.607480 -35.619399 -5.406502 12.972018 66.869949 147.696079 -43.720297 -5.165790 31.212783 -2.281140 2.454506 6.926614 5.617171 7.810738 -26.809473 -3.040598 -0.000003 -0.000002 -0.000001 2.770861 -6.512106 65.405379 4.589361 -4.656685 89.164711 -0.000001 0.000001 0.000000 2.634499 -6.539973 74.809231 5.688696 -4.541731 102.810289 0.000001 0.000003 0.000000 3.122536 -6.655043 70.080924 5.298693 -4.612890 97.926294 0.000001 0.000003 0.000006 4.911937 -9.704387 53.806215 4.184487 -4.633188 84.168005 -0.000000 -0.000002 -0.000000 -0.000003 -0.000001 -0.000001 0.000003 0.000000 -0.000000 0.000003 0.000000 -0.000000 0.000003 0.000000 -0.000000 0.000003 0.000000 -0.000000 0.000003 0.000000 0.000000 0.000003 0.000001 0.000001 0.000003 0.000000 -0.000000 0.000003 0.000000 0.000000 0.000003 0.000001 0.000001 0.000002 0.000000 -0.000000 0.000002 0.000000 -0.000000 -0.000000 0.000000 0.000000 
-0.416533 74.482445 -4.947885 -75.629483 -98.895026 -77.110971 -0.000000 0.000000 -0.000000 -38.832477 6.549861 28.931107 34.141438 -7.067843 2.433733 -3.329571 1.128284 -20.056239 -0.000000 -0.000001 0.000000 -0.000000 -0.000001 0.000000 -0.000001 -0.000000 0.000001 -45.310136 -4.856105 -7.339701 53.761898 -8.830628 0.045522 -15.321246 -1.568899 6.671213 0.000000 0.000000 -0.000000 0.000000 0.000000 -0.000000 -0.000001 0.000002 -0.000000 5.397621 -2.718559 -1.016397 5.153963 -2.563129 -1.256209 5.183560 -2.475178 -1.275664 -1.319606 11.494324 0.007288 -1.247594 65.741807 4.622154 0.000000 0.000000 -0.000001 0.000000 0.000000 -0.000001 0.000000 0.000000 -0.000001 2.112896 -17.802308 2.086007 -51.342003 -61.248485 -57.720337 96.519691 -92.850206 98.973362 -1.097601 -2.058553 44.357472 2.333968 -4.852035 -3.963486 13.533803 36.265897 -6.789668 0.000001 0.000001 0.000001 2.878044 7.353421 -58.659645 6.385719 5.826681 -95.251865 0.000001 -0.000002 -0.000004 2.878030 7.353410 -58.659652 6.420582 5.823386 -95.595246 0.000001 0.000000 -0.000001 3.051709 7.454258 -60.629718 5.249916 5.820216 -84.092804 -0.000001 0.000001 -0.000000 2.878032 7.353385 -58.659652 3.100877 5.166448 -61.922229 -0.000005 0.000002 -0.000002 0.000000 -0.000001 0.000002 2.110712 11.190216 -12.104661 -34.256742 -3.767026 12.659368 66.684708 147.105404 -45.035901 -5.729831 29.870562 -0.307298 2.454520 6.926589 5.617167 7.810730 -26.809483 -3.040606 -0.000003 -0.000003 0.000001 2.770877 -6.512103 65.405379 4.589353 -4.656686 89.164718 -0.000003 -0.000001 0.000002 2.634504 -6.539980 74.809238 5.688702 -4.541731 102.810289 0.000000 0.000001 0.000002 3.122545 -6.655077 70.080917 5.298705 -4.612858 97.926307 -0.000001 0.000001 0.000001 4.911948 -9.704381 53.806209 4.184485 -4.633192 84.168025 -0.000001 0.000004 -0.000001 -0.000003 -0.000000 -0.000000 -0.000000 0.000000 -0.000000 -0.000000 0.000000 -0.000000 -0.000000 0.000000 -0.000000 -0.000000 0.000000 -0.000000 -0.000000 0.000000 -0.000000 -0.000002 0.000000 -0.000000 -0.000000 0.000000 -0.000000 -0.000000 0.000000 -0.000000 -0.000002 0.000000 -0.000000 0.000000 -0.000000 0.000000 0.000000 -0.000000 0.000000 -0.000000 0.000000 -0.000000 
